<?xml version="1.0" encoding="UTF-8" standalone="no"?>
<!-- Created with Inkscape (http://www.inkscape.org/) -->

<svg
   width="210mm"
   height="297mm"
   viewBox="0 0 210 297"
   version="1.1"
   id="svg5"
   xmlns="http://www.w3.org/2000/svg"
   xmlns:svg="http://www.w3.org/2000/svg"
   xmlns:rdf="http://www.w3.org/1999/02/22-rdf-syntax-ns#"
   xmlns:cc="http://creativecommons.org/ns#"
   xmlns:dc="http://purl.org/dc/elements/1.1/">
  <title
     id="title5377">MPT logo new</title>
  <defs
     id="defs2" />
  <g
     id="layer2">
    <path
       id="rect2367"
       style="opacity:1;fill:#00a773;stroke-width:0.268687;fill-opacity:1"
       d="m 109.82119,152.45638 v 59.36919 h 15.17147 v -22.93171 c 0,-9.22272 6.32859,-16.64775 14.18997,-16.64775 7.86139,0 14.19045,7.42503 14.19045,16.64775 v 22.93171 h 15.171 v -59.36919 z" />
    <path
       id="rect3407"
       style="opacity:1;fill:#00a773;stroke-width:0.108709;fill-opacity:1"
       d="m 139.18264,98.910805 c -12.08471,9.862485 -29.36145,15.868455 -29.36145,41.503455 v 7.67649 h 2.24443 c 0.0447,-3.6254 2.56498,-3.99879 2.56498,-3.99879 0,0 2.36487,0.36776 2.36487,3.99879 h 4.92924 c 0.13942,-4.06055 2.49973,-3.99879 2.49973,-3.99879 0,0 2.43012,0.29021 2.43012,3.99879 h 4.92985 c 0.1408,-4.05152 2.49033,-3.99879 2.49033,-3.99879 0,0 2.43889,0.28026 2.43889,3.99879 h 4.92985 c 0.15514,-3.95587 2.39687,-3.99879 2.39687,-3.99879 0,0 2.53237,0.1735 2.53237,3.99879 h 4.92985 c 0.15645,-3.94689 2.38808,-3.99879 2.38808,-3.99879 0,0 2.54177,0.16334 2.54177,3.99879 h 4.92922 c 0.1393,-4.06134 2.50038,-3.99879 2.50038,-3.99879 0,0 2.42947,0.29115 2.42947,3.99879 h 2.25259 v -7.67649 c 0,-25.90761 -17.27625,-31.64056 -29.36144,-41.503455 z" />
  </g>
  <g
     id="layer1">
    <path
       id="path1161"
       style="opacity:1;fill:#00a773;stroke-width:1.08219;fill-opacity:1"
       d="M 389.26416,278.16853 C 227.13926,290.94955 97.797198,420.29162 85.016188,582.41651 c -1.14811,14.56358 -1.14811,38.29872 10e-7,52.8623 12.781015,162.12489 142.123081,291.46695 304.247971,304.24797 14.56358,1.14811 38.29902,1.13959 52.8612,-0.0256 139.20794,-11.13905 256.81509,-108.74673 293.4145,-243.51843 3.82857,-14.09812 -0.32585,-15.67048 -9.34262,-4.17946 -43.97586,56.04309 -108.94366,91.8298 -179.81394,99.04831 -14.53118,1.48007 -38.29331,1.49138 -52.82739,0.0388 C 369.70771,778.51275 271.22553,680.03057 258.8479,556.18237 c -1.45257,-14.53408 -1.44824,-38.29597 0.0195,-52.82844 9.70339,-96.07701 71.6554,-179.26213 160.92631,-216.08133 13.50299,-5.56922 13.11313,-10.0011 -1.49497,-10.12914 -1.43792,-0.0126 -14.47098,-0.12304 -29.03456,1.02507 z"
       transform="scale(0.26458333)" />
    <g
       id="g5291"
       transform="matrix(0.94252874,0,0,0.94252874,9.4661383,1.3644557)"
       style="fill:#00a773;fill-opacity:1">
      <path
         id="path1161-5"
         style="fill:#00a773;stroke-width:0.021131;fill-opacity:1"
         d="m 137.2353,83.871752 a 6.4771564,6.4771564 0 0 0 -6.47715,6.47715 6.4771564,6.4771564 0 0 0 6.47715,6.477149 6.4771564,6.4771564 0 0 0 6.36083,-5.279152 5.1243333,5.1243333 0 0 1 -4.32474,2.382228 5.1243333,5.1243333 0 0 1 -5.12435,-5.124354 5.1243333,5.1243333 0 0 1 3.65497,-4.90766 6.4771564,6.4771564 0 0 0 -0.56671,-0.02536 z" />
      <path
         style="opacity:1;fill:#00a773;fill-opacity:1"
         id="path5163"
         d="m 597.25,335.5 -21.00483,-1.29694 -12.97634,16.56801 -5.25738,-20.37755 -19.76703,-7.22144 L 556,311.875 l 0.75965,-21.03111 16.23094,13.39557 20.23652,-5.7765 -7.72432,19.576 z"
         transform="matrix(-0.1542147,0.03225873,-0.0308956,-0.1476982,239.86107,116.12884)" />
    </g>
  </g>
  <metadata
     id="metadata5375">
    <rdf:RDF>
      <cc:Work
         rdf:about="">
        <dc:title>MPT logo new</dc:title>
      </cc:Work>
    </rdf:RDF>
  </metadata>
</svg>
