<svg xmlns="http://www.w3.org/2000/svg" xmlns:xlink="http://www.w3.org/1999/xlink" width="1000" zoomAndPan="magnify" viewBox="0 0 750 749.999995" height="1000" preserveAspectRatio="xMidYMid meet" version="1.0"><defs><clipPath id="id1"><path d="M 24.40625 24.40625 L 725.65625 24.40625 L 725.65625 725.65625 L 24.40625 725.65625 Z M 24.40625 24.40625 " clip-rule="nonzero"/></clipPath></defs><rect x="-75" width="900" fill="rgb(100%, 100%, 100%)" y="-74.999999" height="899.999994" fill-opacity="1"/><rect x="-75" width="900" fill="rgb(100%, 100%, 100%)" y="-74.999999" height="899.999994" fill-opacity="1"/><rect x="-75" width="900" fill="rgb(100%, 100%, 100%)" y="-74.999999" height="899.999994" fill-opacity="1"/><rect x="-75" width="900" fill="rgb(100%, 100%, 100%)" y="-74.999999" height="899.999994" fill-opacity="1"/><g clip-path="url(#id1)"><path fill="rgb(1.179504%, 59.609985%, 61.959839%)" d="M 375.03125 725.65625 C 181.695312 725.65625 24.40625 568.371094 24.40625 375.03125 C 24.40625 181.695312 181.695312 24.40625 375.03125 24.40625 C 393.878906 24.40625 413.082031 25.96875 432.089844 29.089844 C 435.980469 29.722656 438.828125 33.0625 438.882812 36.980469 C 438.941406 40.898438 436.171875 44.320312 432.308594 45.035156 C 316.578125 67.167969 232.5625 168.847656 232.5625 286.828125 C 232.5625 377.992188 282.582031 461.320312 363.117188 504.242188 C 365.882812 505.75 368.675781 507.148438 371.5 508.542969 C 375.527344 510.488281 377.222656 515.335938 375.25 519.363281 C 373.308594 523.390625 368.457031 525.0625 364.433594 523.117188 C 361.417969 521.636719 358.433594 520.132812 355.472656 518.542969 C 269.679688 472.796875 216.375 383.988281 216.375 286.828125 C 216.375 175.859375 286.117188 78.398438 387.304688 40.84375 C 383.195312 40.679688 379.113281 40.597656 375.03125 40.597656 C 190.625 40.597656 40.625 190.625 40.625 375.03125 C 40.625 559.4375 190.625 709.46875 375.03125 709.46875 C 545.332031 709.46875 686.320312 581.519531 706.894531 416.695312 C 660.738281 497.421875 573.738281 549.277344 478.796875 549.277344 C 474.332031 549.277344 470.6875 545.660156 470.6875 541.167969 C 470.6875 536.703125 474.332031 533.058594 478.796875 533.058594 C 581.574219 533.058594 674.488281 468.277344 709.960938 371.855469 C 711.304688 368.183594 715.113281 365.992188 718.972656 366.679688 C 722.835938 367.363281 725.65625 370.730469 725.65625 374.648438 C 725.65625 568.371094 568.371094 725.65625 375.03125 725.65625 " fill-opacity="1" fill-rule="nonzero"/></g><path fill="rgb(1.179504%, 59.609985%, 61.959839%)" d="M 583.792969 342.65625 C 579.300781 342.65625 575.683594 339.011719 575.683594 334.546875 L 575.683594 301.621094 C 575.683594 274.335938 575.246094 259.355469 565.765625 242.617188 C 555.742188 224.894531 536.675781 212.320312 516.488281 198.980469 C 502.023438 189.421875 487.148438 179.613281 475.480469 167.480469 C 463.8125 179.613281 448.9375 189.421875 434.472656 198.980469 C 414.285156 212.320312 395.25 224.894531 385.195312 242.617188 C 375.277344 260.121094 375.277344 280.253906 375.277344 301.621094 L 375.277344 334.546875 C 375.277344 339.011719 371.664062 342.65625 367.199219 342.65625 C 362.707031 342.65625 359.089844 339.011719 359.089844 334.546875 L 359.089844 301.621094 C 359.089844 279.105469 359.089844 255.847656 371.089844 234.644531 C 383.058594 213.527344 404.644531 199.253906 425.542969 185.449219 C 442.472656 174.273438 458.441406 163.726562 469.125 150.167969 C 472.195312 146.25 478.796875 146.25 481.863281 150.167969 C 492.546875 163.726562 508.515625 174.273438 525.417969 185.449219 C 546.316406 199.253906 567.929688 213.527344 579.875 234.644531 C 591.871094 255.847656 591.871094 276.035156 591.871094 301.621094 L 591.871094 334.546875 C 591.871094 339.011719 588.257812 342.65625 583.792969 342.65625 " fill-opacity="1" fill-rule="nonzero"/><path fill="rgb(1.179504%, 59.609985%, 61.959839%)" d="M 394.425781 342.65625 C 389.960938 342.65625 386.316406 339.011719 386.316406 334.546875 L 386.316406 315.152344 C 386.316406 310.660156 389.960938 307.042969 394.425781 307.042969 C 398.890625 307.042969 402.535156 310.660156 402.535156 315.152344 L 402.535156 334.546875 C 402.535156 339.011719 398.890625 342.65625 394.425781 342.65625 " fill-opacity="1" fill-rule="nonzero"/><path fill="rgb(1.179504%, 59.609985%, 61.959839%)" d="M 421.683594 342.65625 C 417.191406 342.65625 413.574219 339.011719 413.574219 334.546875 L 413.574219 315.152344 C 413.574219 310.660156 417.191406 307.042969 421.683594 307.042969 C 426.148438 307.042969 429.761719 310.660156 429.761719 315.152344 L 429.761719 334.546875 C 429.761719 339.011719 426.148438 342.65625 421.683594 342.65625 " fill-opacity="1" fill-rule="nonzero"/><path fill="rgb(1.179504%, 59.609985%, 61.959839%)" d="M 448.910156 342.65625 C 444.445312 342.65625 440.828125 339.011719 440.828125 334.546875 L 440.828125 315.152344 C 440.828125 310.660156 444.445312 307.042969 448.910156 307.042969 C 453.375 307.042969 457.019531 310.660156 457.019531 315.152344 L 457.019531 334.546875 C 457.019531 339.011719 453.375 342.65625 448.910156 342.65625 " fill-opacity="1" fill-rule="nonzero"/><path fill="rgb(1.179504%, 59.609985%, 61.959839%)" d="M 476.164062 342.65625 C 471.671875 342.65625 468.058594 339.011719 468.058594 334.546875 L 468.058594 315.152344 C 468.058594 310.660156 471.671875 307.042969 476.164062 307.042969 C 480.632812 307.042969 484.246094 310.660156 484.246094 315.152344 L 484.246094 334.546875 C 484.246094 339.011719 480.632812 342.65625 476.164062 342.65625 " fill-opacity="1" fill-rule="nonzero"/><path fill="rgb(1.179504%, 59.609985%, 61.959839%)" d="M 503.394531 342.65625 C 498.929688 342.65625 495.3125 339.011719 495.3125 334.546875 L 495.3125 315.152344 C 495.3125 310.660156 498.929688 307.042969 503.394531 307.042969 C 507.886719 307.042969 511.503906 310.660156 511.503906 315.152344 L 511.503906 334.546875 C 511.503906 339.011719 507.886719 342.65625 503.394531 342.65625 " fill-opacity="1" fill-rule="nonzero"/><path fill="rgb(1.179504%, 59.609985%, 61.959839%)" d="M 530.648438 342.65625 C 526.15625 342.65625 522.542969 339.011719 522.542969 334.546875 L 522.542969 315.152344 C 522.542969 310.660156 526.15625 307.042969 530.648438 307.042969 C 535.113281 307.042969 538.730469 310.660156 538.730469 315.152344 L 538.730469 334.546875 C 538.730469 339.011719 535.113281 342.65625 530.648438 342.65625 " fill-opacity="1" fill-rule="nonzero"/><path fill="rgb(1.179504%, 59.609985%, 61.959839%)" d="M 557.878906 342.65625 C 553.414062 342.65625 549.796875 339.011719 549.796875 334.546875 L 549.796875 315.152344 C 549.796875 310.660156 553.414062 307.042969 557.878906 307.042969 C 562.371094 307.042969 565.984375 310.660156 565.984375 315.152344 L 565.984375 334.546875 C 565.984375 339.011719 562.371094 342.65625 557.878906 342.65625 " fill-opacity="1" fill-rule="nonzero"/><path fill="rgb(1.179504%, 59.609985%, 61.959839%)" d="M 584.257812 522.378906 C 579.792969 522.378906 576.148438 518.734375 576.148438 514.269531 L 576.148438 369.828125 L 376.839844 369.828125 L 376.839844 482.273438 C 376.839844 486.738281 373.199219 490.382812 368.730469 490.382812 C 364.265625 490.382812 360.625 486.738281 360.625 482.273438 L 360.625 353.613281 L 592.367188 353.613281 L 592.367188 514.269531 C 592.367188 518.734375 588.722656 522.378906 584.257812 522.378906 " fill-opacity="1" fill-rule="nonzero"/><path fill="rgb(1.179504%, 59.609985%, 61.959839%)" d="M 475.480469 163.261719 C 471.015625 163.261719 467.371094 159.644531 467.371094 155.179688 L 467.371094 124.417969 C 467.371094 119.925781 471.015625 116.308594 475.480469 116.308594 C 479.972656 116.308594 483.589844 119.925781 483.589844 124.417969 L 483.589844 155.179688 C 483.589844 159.644531 479.972656 163.261719 475.480469 163.261719 " fill-opacity="1" fill-rule="nonzero"/><path fill="rgb(1.179504%, 59.609985%, 61.959839%)" d="M 517.363281 544.976562 C 512.898438 544.976562 509.285156 541.359375 509.285156 536.894531 L 509.285156 481.808594 C 509.285156 463.730469 494.574219 449.019531 476.496094 449.019531 C 458.414062 449.019531 443.707031 463.730469 443.707031 481.808594 L 443.707031 536.894531 C 443.707031 541.359375 440.089844 544.976562 435.625 544.976562 C 431.132812 544.976562 427.515625 541.359375 427.515625 536.894531 L 427.515625 481.808594 C 427.515625 454.800781 449.484375 432.832031 476.496094 432.832031 C 503.503906 432.832031 525.472656 454.800781 525.472656 481.808594 L 525.472656 536.894531 C 525.472656 541.359375 521.855469 544.976562 517.363281 544.976562 " fill-opacity="1" fill-rule="nonzero"/><path fill="rgb(1.179504%, 59.609985%, 61.959839%)" d="M 475.589844 132.5 C 466.796875 132.5 458.550781 129.074219 452.363281 122.882812 C 446.144531 116.664062 442.71875 108.421875 442.71875 99.65625 C 442.71875 90.863281 446.144531 82.617188 452.363281 76.425781 C 457.59375 71.167969 464.277344 67.933594 471.644531 67.03125 C 476.082031 66.511719 480.109375 69.6875 480.660156 74.125 C 481.179688 78.5625 478 82.589844 473.5625 83.136719 C 469.839844 83.574219 466.46875 85.21875 463.8125 87.875 C 460.660156 91.027344 458.9375 95.191406 458.9375 99.65625 C 458.9375 104.09375 460.660156 108.285156 463.8125 111.40625 C 470.085938 117.707031 481.070312 117.707031 487.371094 111.433594 C 490.027344 108.777344 491.671875 105.378906 492.109375 101.65625 C 492.65625 97.21875 496.65625 94.039062 501.121094 94.585938 C 505.558594 95.109375 508.734375 99.132812 508.1875 103.597656 C 507.3125 110.96875 504.050781 117.625 498.820312 122.882812 C 492.601562 129.074219 484.355469 132.5 475.589844 132.5 " fill-opacity="1" fill-rule="nonzero"/><path fill="rgb(1.179504%, 59.609985%, 61.959839%)" d="M 512.925781 90.78125 L 500.628906 84.34375 L 488.328125 90.78125 L 490.65625 77.109375 L 480.714844 67.386719 L 494.464844 65.386719 L 500.628906 52.949219 L 506.789062 65.386719 L 520.542969 67.386719 L 510.597656 77.109375 L 512.925781 90.78125 " fill-opacity="1" fill-rule="nonzero"/></svg>